999
FreeCAD v1.0 39319 (Git)
  0
SECTION
  2
HEADER
  9
$ACADVER
  1
AC1014
  9
$ACADMAINTVER
 70
     9
  9
$DWGCODEPAGE
  3
ANSI_1252
  9
$TEXTSTYLE
  7
STANDARD
  9
$DIMSTYLE
  2
STANDARD
  9
$DIMTXSTY
  7
STANDARD
  9
$CMLSTYLE
  2
STANDARD
  9
$LUNITS
 70
2
  9
$INSUNITS
 70
4
  9
$PEXTMAX
 10
50
 20
50
 30
50
  9
$PEXTMIN
 10
0
 20
0
 30
0
  9
$HANDSEED
  5
FFFF
  0
ENDSEC
  0
SECTION
  2
CLASSES
  0
CLASS
  1
ACDBDICTIONARYWDFLT
  2
AcDbDictionaryWithDefault
  3
ObjectDBX Classes
 90
        0
280
     0
281
     0
  0
CLASS
  1
XRECORD
  2
AcDbXrecord
  3
ObjectDBX Classes
 90
        0
280
     0
281
     0
  0
CLASS
  1
LWPOLYLINE
  2
AcDbPolyline
  3
ObjectDBX Classes
 90
        0
280
     0
281
     1
  0
ENDSEC
  0
SECTION
  2
TABLES
  0
TABLE
  2
VPORT
  5
20
330
0
100
AcDbSymbolTable
 70
     1
  0
VPORT
  5
21
330
20
100
AcDbSymbolTableRecord
100
AcDbViewportTableRecord
  2
*ACTIVE
 70
     0
  0
ENDTAB
  0
TABLE
  2
LTYPE
  5
22
330
0
100
AcDbSymbolTable
 70
     1
  0
LTYPE
  5
23
330
21
100
AcDbSymbolTableRecord
100
AcDbLinetypeTableRecord
  2
BYBLOCK
 70
     0
  3

 72
    65
 73
     0
 40
0.0
  0
LTYPE
  5
24
330
21
100
AcDbSymbolTableRecord
100
AcDbLinetypeTableRecord
  2
BYLAYER
 70
     0
  3

 72
    65
 73
     0
 40
0.0
  0
LTYPE
  5
25
330
21
100
AcDbSymbolTableRecord
100
AcDbLinetypeTableRecord
  2
CONTINUOUS
 70
     0
  3
Solid line
 72
    65
 73
     0
 40
0.0
  0
ENDTAB
  0
TABLE
  2
LAYER
  5
AE0
330
0
100
AcDbSymbolTable
 70
3
  0
LAYER
  5
AE1
330
AE0
100
AcDbSymbolTableRecord
100
AcDbLayerTableRecord
  2
0
 70
   0
 62
   7
  6
CONTINUOUS
  0
LAYER
  5
AE2
330
AE0
100
AcDbSymbolTableRecord
100
AcDbLayerTableRecord
  2
none
 70
    0
 62
    7
  6
CONTINUOUS
  0
LAYER
  5
AE3
330
AE0
100
AcDbSymbolTableRecord
100
AcDbLayerTableRecord
  2
Shape2DView
 70
    0
 62
    7
  6
CONTINUOUS
  0
ENDTAB
  0
TABLE
  2
STYLE
  5
70
330
0
100
AcDbSymbolTable
 70
     2
  0
STYLE
  5
71
330
70
100
AcDbSymbolTableRecord
100
AcDbTextStyleTableRecord
  2
STANDARD
 70
     0
 40
0.0
 41
1.0
 50
0.0
 71
     0
 42
2.5
  3
arial.ttf
  4

  0
STYLE
  5
72
330
70
100
AcDbSymbolTableRecord
100
AcDbTextStyleTableRecord
  2
ANNOTATIVE
 70
     0
 40
0.0
 41
1.0
 50
0.0
 71
     0
 42
2.5
  3
arial.ttf
  4

  0
ENDTAB
  0
TABLE
  2
VIEW
  5
73
330
0
100
AcDbSymbolTable
 70
     0
  0
ENDTAB
  0
TABLE
  2
UCS
  5
74
330
0
100
AcDbSymbolTable
 70
     0
  0
ENDTAB
  0
TABLE
  2
APPID
  5
75
330
0
100
AcDbSymbolTable
 70
     2
  0
APPID
  5
76
330
75
100
AcDbSymbolTableRecord
100
AcDbRegAppTableRecord
  2
ACAD
 70
     0
  0
APPID
  5
77
330
75
100
AcDbSymbolTableRecord
100
AcDbRegAppTableRecord
  2
ACADANNOTATIVE
 70
     0
  0
ENDTAB
  0
TABLE
  2
DIMSTYLE
  5
78
330
0
100
AcDbSymbolTable
 70
     2
  0
DIMSTYLE
105
79
330
78
100
AcDbSymbolTableRecord
100
AcDbDimStyleTableRecord
  2
STANDARD
 70
     0
  3

  4

  5

  6

  7

 40
0.0
 41
2.5
 42
0.625
 43
3.75
 44
1.25
 45
0.0
 46
0.0
 47
0.0
 48
0.0
140
2.5
141
2.5
142
0.0
143
0.03937007874016
144
1.0
145
0.0
146
1.0
147
0.625
 71
     0
 72
     0
 73
     0
 74
     0
 75
     0
 76
     0
 77
     1
 78
     8
170
     0
171
     3
172
     1
173
     0
174
     0
175
     0
176
     0
177
     0
178
     0
270
     2
271
     2
272
     2
273
     2
274
     3
340
71
275
     0
280
     0
281
     0
282
     0
283
     0
284
     8
285
     0
286
     0
287
     3
288
     0
  0
ENDTAB
  0
TABLE
  2
BLOCK_RECORD
  5
A01
330
0
100
AcDbSymbolTable
  70
5
  0
BLOCK_RECORD
  5
A02
330
A01
100
AcDbSymbolTableRecord
100
AcDbBlockTableRecord
  2
*MODEL_SPACE
  0
BLOCK_RECORD
  5
A03
330
A01
100
AcDbSymbolTableRecord
100
AcDbBlockTableRecord
  2
*PAPER_SPACE
  0
ENDTAB
  0
ENDSEC
  0
SECTION
  2
BLOCKS
  0
BLOCK
  5
A04
330
A02
100
AcDbEntity
  8
0
100
AcDbBlockBegin
  2
*MODEL_SPACE
 70
   0
 10
0
 20
0
 30
0
  3
*MODEL_SPACE
  1
 
  0
ENDBLK
  5
A05
330
A02
100
AcDbEntity
  8
0
100
AcDbBlockEnd
  0
BLOCK
  5
A06
330
A03
100
AcDbEntity
 67
1
  8
0
100
AcDbBlockBegin
  2
*PAPER_SPACE
 70
   0
 10
0
 20
0
 30
0
  3
*PAPER_SPACE
  1
 
  0
ENDBLK
  5
A07
330
A03
100
AcDbEntity
 67
    1
  8
0
100
AcDbBlockEnd
  0
ENDSEC
  0
SECTION
  2
ENTITIES
  0
ARC
  5
A08
330
A02
100
AcDbEntity
  8
Shape2DView
100
AcDbCircle
 10
-149.002696000
 20
-14.251061023
 30
0.000000000
 40
1.000000000
100
AcDbArc
 50
180.000000000
 51
-90.000001337
  0
LINE
  5
A09
330
A02
100
AcDbEntity
  8
Shape2DView
100
AcDbLine
 10
-150.002696000
 20
-14.251061023
 30
0.000000000
 11
-150.002696000
 21
40.898939000
 31
0.000000000
  0
LINE
  5
A0A
330
A02
100
AcDbEntity
  8
Shape2DView
100
AcDbLine
 10
-149.002696023
 20
-15.251061023
 30
0.000000000
 11
-107.717547187
 21
-15.251061987
 31
0.000000000
  0
ARC
  5
A0B
330
A02
100
AcDbEntity
  8
Shape2DView
100
AcDbCircle
 10
-149.002696000
 20
40.898939000
 30
0.000000000
 40
1.000000000
100
AcDbArc
 50
90.000000000
 51
-180.000000000
  0
ARC
  5
A0C
330
A02
100
AcDbEntity
  8
Shape2DView
100
AcDbCircle
 10
-107.717547211
 20
-16.251061987
 30
0.000000000
 40
1.000000000
100
AcDbArc
 50
30.000005699
 51
89.999998663
  0
LINE
  5
A0D
330
A02
100
AcDbEntity
  8
Shape2DView
100
AcDbLine
 10
-149.002696000
 20
41.898939000
 30
0.000000000
 11
-115.229677233
 21
41.898939000
 31
0.000000000
  0
LINE
  5
A0E
330
A02
100
AcDbEntity
  8
Shape2DView
100
AcDbLine
 10
-106.851521857
 20
-15.751061900
 30
0.000000000
 11
-101.929610151
 21
-24.276061086
 31
0.000000000
  0
ARC
  5
A0F
330
A02
100
AcDbEntity
  8
Shape2DView
100
AcDbCircle
 10
-115.229677233
 20
42.898939000
 30
0.000000000
 40
1.000000000
100
AcDbArc
 50
-90.000000000
 51
-30.000003095
  0
ARC
  5
A10
330
A02
100
AcDbEntity
  8
Shape2DView
100
AcDbCircle
 10
-101.063584797
 20
-23.776061000
 30
0.000000000
 40
1.000000000
100
AcDbArc
 50
-149.999994301
 51
-90.000000000
  0
LINE
  5
A11
330
A02
100
AcDbEntity
  8
Shape2DView
100
AcDbLine
 10
-114.363651856
 20
42.398938953
 30
0.000000000
 11
-112.191371144
 21
46.161439047
 31
0.000000000
  0
LINE
  5
A12
330
A02
100
AcDbEntity
  8
Shape2DView
100
AcDbLine
 10
-101.063584797
 20
-24.776061000
 30
0.000000000
 11
-82.260557308
 21
-24.776061000
 31
0.000000000
  0
ARC
  5
A13
330
A02
100
AcDbEntity
  8
Shape2DView
100
AcDbCircle
 10
-111.325345767
 20
45.661439000
 30
0.000000000
 40
1.000000000
100
AcDbArc
 50
90.000000000
 51
149.999996905
  0
ARC
  5
A14
330
A02
100
AcDbEntity
  8
Shape2DView
100
AcDbCircle
 10
-82.260557308
 20
-25.776061000
 30
0.000000000
 40
1.000000000
100
AcDbArc
 50
29.999996676
 51
90.000000000
  0
LINE
  5
A15
330
A02
100
AcDbEntity
  8
Shape2DView
100
AcDbLine
 10
-111.325345767
 20
46.661439000
 30
0.000000000
 11
-98.929308233
 21
46.661439000
 31
0.000000000
  0
LINE
  5
A16
330
A02
100
AcDbEntity
  8
Shape2DView
100
AcDbLine
 10
-81.394531875
 20
-25.276061050
 30
0.000000000
 11
-76.392121872
 21
-33.940490497
 31
0.000000000
  0
ARC
  5
A17
330
A02
100
AcDbEntity
  8
Shape2DView
100
AcDbCircle
 10
-98.929308233
 20
47.661439000
 30
0.000000000
 40
1.000000000
100
AcDbArc
 50
-90.000000000
 51
-30.000003095
  0
ARC
  5
A18
330
A02
100
AcDbEntity
  8
Shape2DView
100
AcDbCircle
 10
-75.526096439
 20
-33.440490547
 30
0.000000000
 40
1.000000000
100
AcDbArc
 50
-150.000003324
 51
-104.791217256
  0
LINE
  5
A19
330
A02
100
AcDbEntity
  8
Shape2DView
100
AcDbLine
 10
-98.063282856
 20
47.161438953
 30
0.000000000
 11
-93.141371144
 21
55.686439047
 31
0.000000000
  0
LINE
  5
A1A
330
A02
100
AcDbEntity
  8
Shape2DView
100
AcDbLine
 10
-37.915806615
 20
-44.405663544
 30
0.000000000
 11
-75.781393992
 21
-34.407353081
 31
0.000000000
  0
ARC
  5
A1B
330
A02
100
AcDbEntity
  8
Shape2DView
100
AcDbCircle
 10
-92.275345767
 20
55.186439000
 30
0.000000000
 40
1.000000000
100
AcDbArc
 50
90.000000000
 51
149.999996905
  0
ARC
  5
A1C
330
A02
100
AcDbEntity
  8
Shape2DView
100
AcDbCircle
 10
-38.171104168
 20
-45.372526078
 30
0.000000000
 40
1.000000000
100
AcDbArc
 50
51.999998663
 51
75.208782744
  0
LINE
  5
A1D
330
A02
100
AcDbEntity
  8
Shape2DView
100
AcDbLine
 10
-92.275345767
 20
56.186439000
 30
0.000000000
 11
-74.380046269
 21
56.186439000
 31
0.000000000
  0
LINE
  5
A1E
330
A02
100
AcDbEntity
  8
Shape2DView
100
AcDbLine
 10
-23.493667745
 20
-55.570778502
 30
0.000000000
 11
-37.555442674
 21
-44.584515338
 31
0.000000000
  0
ARC
  5
A1F
330
A02
100
AcDbEntity
  8
Shape2DView
100
AcDbCircle
 10
-74.380046269
 20
55.186439000
 30
0.000000000
 40
1.000000000
100
AcDbArc
 50
30.000000046
 51
90.000000000
  0
ARC
  5
A20
330
A02
100
AcDbEntity
  8
Shape2DView
100
AcDbCircle
 10
-22.878006252
 20
-54.782767762
 30
0.000000000
 40
1.000000000
100
AcDbArc
 50
-128.000001337
 51
-38.000000892
  0
LINE
  5
A21
330
A02
100
AcDbEntity
  8
Shape2DView
100
AcDbLine
 10
-73.514020865
 20
55.686439001
 30
0.000000000
 11
-71.421126135
 21
52.061438999
 31
0.000000000
  0
LINE
  5
A22
330
A02
100
AcDbEntity
  8
Shape2DView
100
AcDbLine
 10
-5.728791532
 20
-34.457043801
 30
0.000000000
 11
-22.089995508
 21
-55.398429250
 31
0.000000000
  0
ARC
  5
A23
330
A02
100
AcDbEntity
  8
Shape2DView
100
AcDbCircle
 10
-70.555100731
 20
52.561439000
 30
0.000000000
 40
1.000000000
100
AcDbArc
 50
-149.999999954
 51
-90.000000000
  0
ARC
  5
A24
330
A02
100
AcDbEntity
  8
Shape2DView
100
AcDbCircle
 10
-6.516802276
 20
-33.841382313
 30
0.000000000
 40
1.000000000
100
AcDbArc
 50
-38.000000892
 51
52.000003214
  0
LINE
  5
A25
330
A02
100
AcDbEntity
  8
Shape2DView
100
AcDbLine
 10
-70.555100731
 20
51.561439000
 30
0.000000000
 11
-37.690196000
 21
51.561439000
 31
0.000000000
  0
LINE
  5
A26
330
A02
100
AcDbEntity
  8
Shape2DView
100
AcDbLine
 10
-10.305857431
 20
-29.612030165
 30
0.000000000
 11
-5.901140845
 21
-33.053371525
 31
0.000000000
  0
ARC
  5
A27
330
A02
100
AcDbEntity
  8
Shape2DView
100
AcDbCircle
 10
-37.690196000
 20
50.561439000
 30
0.000000000
 40
1.000000000
100
AcDbArc
 50
0.000000000
 51
90.000000000
  0
ARC
  5
A28
330
A02
100
AcDbEntity
  8
Shape2DView
100
AcDbCircle
 10
-9.690196000
 20
-28.824019377
 30
0.000000000
 40
1.000000000
100
AcDbArc
 50
180.000000000
 51
-127.999996786
  0
LINE
  5
A29
330
A02
100
AcDbEntity
  8
Shape2DView
100
AcDbLine
 10
-36.690196000
 20
50.561439000
 30
0.000000000
 11
-36.690196000
 21
-21.938561000
 31
0.000000000
  0
LINE
  5
A2A
330
A02
100
AcDbEntity
  8
Shape2DView
100
AcDbLine
 10
-10.690196000
 20
-28.824019377
 30
0.000000000
 11
-10.690196000
 21
-23.938561000
 31
0.000000000
  0
ARC
  5
A2B
330
A02
100
AcDbEntity
  8
Shape2DView
100
AcDbCircle
 10
-35.690196000
 20
-21.938561000
 30
0.000000000
 40
1.000000000
100
AcDbArc
 50
180.000000000
 51
-90.000000000
  0
ARC
  5
A2C
330
A02
100
AcDbEntity
  8
Shape2DView
100
AcDbCircle
 10
-11.690196000
 20
-23.938561000
 30
0.000000000
 40
1.000000000
100
AcDbArc
 50
0.000000000
 51
90.000000000
  0
LINE
  5
A2D
330
A02
100
AcDbEntity
  8
Shape2DView
100
AcDbLine
 10
-35.690196000
 20
-22.938561000
 30
0.000000000
 11
-11.690196000
 21
-22.938561000
 31
0.000000000
  0
LINE
  5
A2E
330
A02
100
AcDbEntity
  8
Shape2DView
100
AcDbLine
 10
-147.477696000
 20
-12.226061000
 30
0.000000000
 11
-147.477696000
 21
0.773939000
 31
0.000000000
  0
ARC
  5
A2F
330
A02
100
AcDbEntity
  8
Shape2DView
100
AcDbCircle
 10
-146.977696000
 20
-12.226061000
 30
0.000000000
 40
0.500000000
100
AcDbArc
 50
180.000000000
 51
-90.000000000
  0
ARC
  5
A30
330
A02
100
AcDbEntity
  8
Shape2DView
100
AcDbCircle
 10
-146.977696000
 20
0.773939000
 30
0.000000000
 40
0.500000000
100
AcDbArc
 50
90.000000000
 51
180.000000000
  0
LINE
  5
A31
330
A02
100
AcDbEntity
  8
Shape2DView
100
AcDbLine
 10
-133.977696000
 20
-12.726061000
 30
0.000000000
 11
-146.977696000
 21
-12.726061000
 31
0.000000000
  0
LINE
  5
A32
330
A02
100
AcDbEntity
  8
Shape2DView
100
AcDbLine
 10
-146.977696000
 20
1.273939000
 30
0.000000000
 11
-133.977696000
 21
1.273939000
 31
0.000000000
  0
ARC
  5
A33
330
A02
100
AcDbEntity
  8
Shape2DView
100
AcDbCircle
 10
-133.977696000
 20
-12.226061000
 30
0.000000000
 40
0.500000000
100
AcDbArc
 50
-90.000000000
 51
0.000000000
  0
ARC
  5
A34
330
A02
100
AcDbEntity
  8
Shape2DView
100
AcDbCircle
 10
-133.977696000
 20
0.773939000
 30
0.000000000
 40
0.500000000
100
AcDbArc
 50
0.000000000
 51
90.000000000
  0
LINE
  5
A35
330
A02
100
AcDbEntity
  8
Shape2DView
100
AcDbLine
 10
-133.477696000
 20
0.773939000
 30
0.000000000
 11
-133.477696000
 21
-12.226061000
 31
0.000000000
  0
LINE
  5
A36
330
A02
100
AcDbEntity
  8
Shape2DView
100
AcDbLine
 10
-128.427696000
 20
-12.226061000
 30
0.000000000
 11
-128.427696000
 21
0.773939000
 31
0.000000000
  0
ARC
  5
A37
330
A02
100
AcDbEntity
  8
Shape2DView
100
AcDbCircle
 10
-127.927696000
 20
-12.226061000
 30
0.000000000
 40
0.500000000
100
AcDbArc
 50
180.000000000
 51
-90.000000000
  0
ARC
  5
A38
330
A02
100
AcDbEntity
  8
Shape2DView
100
AcDbCircle
 10
-127.927696000
 20
0.773939000
 30
0.000000000
 40
0.500000000
100
AcDbArc
 50
90.000000000
 51
180.000000000
  0
LINE
  5
A39
330
A02
100
AcDbEntity
  8
Shape2DView
100
AcDbLine
 10
-114.927696000
 20
-12.726061000
 30
0.000000000
 11
-127.927696000
 21
-12.726061000
 31
0.000000000
  0
LINE
  5
A3A
330
A02
100
AcDbEntity
  8
Shape2DView
100
AcDbLine
 10
-127.927696000
 20
1.273939000
 30
0.000000000
 11
-114.927696000
 21
1.273939000
 31
0.000000000
  0
ARC
  5
A3B
330
A02
100
AcDbEntity
  8
Shape2DView
100
AcDbCircle
 10
-114.927696000
 20
-12.226061000
 30
0.000000000
 40
0.500000000
100
AcDbArc
 50
-90.000000000
 51
0.000000000
  0
ARC
  5
A3C
330
A02
100
AcDbEntity
  8
Shape2DView
100
AcDbCircle
 10
-114.927696000
 20
0.773939000
 30
0.000000000
 40
0.500000000
100
AcDbArc
 50
0.000000000
 51
90.000000000
  0
LINE
  5
A3D
330
A02
100
AcDbEntity
  8
Shape2DView
100
AcDbLine
 10
-114.427696000
 20
0.773939000
 30
0.000000000
 11
-114.427696000
 21
-12.226061000
 31
0.000000000
  0
LINE
  5
A3E
330
A02
100
AcDbEntity
  8
Shape2DView
100
AcDbLine
 10
-109.377696000
 20
-7.463561000
 30
0.000000000
 11
-109.377696000
 21
5.536439000
 31
0.000000000
  0
ARC
  5
A3F
330
A02
100
AcDbEntity
  8
Shape2DView
100
AcDbCircle
 10
-108.877696000
 20
-7.463561000
 30
0.000000000
 40
0.500000000
100
AcDbArc
 50
180.000000000
 51
-90.000000000
  0
ARC
  5
A40
330
A02
100
AcDbEntity
  8
Shape2DView
100
AcDbCircle
 10
-108.877696000
 20
5.536439000
 30
0.000000000
 40
0.500000000
100
AcDbArc
 50
90.000000000
 51
180.000000000
  0
LINE
  5
A41
330
A02
100
AcDbEntity
  8
Shape2DView
100
AcDbLine
 10
-95.877696000
 20
-7.963561000
 30
0.000000000
 11
-108.877696000
 21
-7.963561000
 31
0.000000000
  0
LINE
  5
A42
330
A02
100
AcDbEntity
  8
Shape2DView
100
AcDbLine
 10
-108.877696000
 20
6.036439000
 30
0.000000000
 11
-95.877696000
 21
6.036439000
 31
0.000000000
  0
ARC
  5
A43
330
A02
100
AcDbEntity
  8
Shape2DView
100
AcDbCircle
 10
-95.877696000
 20
-7.463561000
 30
0.000000000
 40
0.500000000
100
AcDbArc
 50
-90.000000000
 51
0.000000000
  0
ARC
  5
A44
330
A02
100
AcDbEntity
  8
Shape2DView
100
AcDbCircle
 10
-95.877696000
 20
5.536439000
 30
0.000000000
 40
0.500000000
100
AcDbArc
 50
0.000000000
 51
90.000000000
  0
LINE
  5
A45
330
A02
100
AcDbEntity
  8
Shape2DView
100
AcDbLine
 10
-95.377696000
 20
5.536439000
 30
0.000000000
 11
-95.377696000
 21
-7.463561000
 31
0.000000000
  0
LINE
  5
A46
330
A02
100
AcDbEntity
  8
Shape2DView
100
AcDbLine
 10
-73.658946000
 20
-31.276061000
 30
0.000000000
 11
-73.658946000
 21
-18.276061000
 31
0.000000000
  0
ARC
  5
A47
330
A02
100
AcDbEntity
  8
Shape2DView
100
AcDbCircle
 10
-73.158946000
 20
-31.276061000
 30
0.000000000
 40
0.500000000
100
AcDbArc
 50
180.000000000
 51
-90.000000000
  0
ARC
  5
A48
330
A02
100
AcDbEntity
  8
Shape2DView
100
AcDbCircle
 10
-73.158946000
 20
-18.276061000
 30
0.000000000
 40
0.500000000
100
AcDbArc
 50
90.000000000
 51
180.000000000
  0
LINE
  5
A49
330
A02
100
AcDbEntity
  8
Shape2DView
100
AcDbLine
 10
-60.158946000
 20
-31.776061000
 30
0.000000000
 11
-73.158946000
 21
-31.776061000
 31
0.000000000
  0
LINE
  5
A4A
330
A02
100
AcDbEntity
  8
Shape2DView
100
AcDbLine
 10
-73.158946000
 20
-17.776061000
 30
0.000000000
 11
-60.158946000
 21
-17.776061000
 31
0.000000000
  0
ARC
  5
A4B
330
A02
100
AcDbEntity
  8
Shape2DView
100
AcDbCircle
 10
-60.158946000
 20
-31.276061000
 30
0.000000000
 40
0.500000000
100
AcDbArc
 50
-90.000000000
 51
0.000000000
  0
ARC
  5
A4C
330
A02
100
AcDbEntity
  8
Shape2DView
100
AcDbCircle
 10
-60.158946000
 20
-18.276061000
 30
0.000000000
 40
0.500000000
100
AcDbArc
 50
0.000000000
 51
90.000000000
  0
LINE
  5
A4D
330
A02
100
AcDbEntity
  8
Shape2DView
100
AcDbLine
 10
-59.658946000
 20
-18.276061000
 30
0.000000000
 11
-59.658946000
 21
-31.276061000
 31
0.000000000
  0
LINE
  5
A4E
330
A02
100
AcDbEntity
  8
Shape2DView
100
AcDbLine
 10
-30.846896226
 20
-40.577836686
 30
0.000000000
 11
-20.602756429
 21
-48.581435865
 31
0.000000000
  0
ARC
  5
A4F
330
A02
100
AcDbEntity
  8
Shape2DView
100
AcDbCircle
 10
-30.539065488
 20
-40.183831309
 30
0.000000000
 40
0.500000000
100
AcDbArc
 50
142.000000000
 51
-128.000000000
  0
ARC
  5
A50
330
A02
100
AcDbEntity
  8
Shape2DView
100
AcDbCircle
 10
-20.294925691
 20
-48.187430488
 30
0.000000000
 40
0.500000000
100
AcDbArc
 50
-128.000000000
 51
-38.000000000
  0
LINE
  5
A51
330
A02
100
AcDbEntity
  8
Shape2DView
100
AcDbLine
 10
-22.929471686
 20
-29.631860774
 30
0.000000000
 11
-30.933070865
 21
-39.876000571
 31
0.000000000
  0
LINE
  5
A52
330
A02
100
AcDbEntity
  8
Shape2DView
100
AcDbLine
 10
-19.900920314
 20
-48.495261226
 30
0.000000000
 11
-11.897321135
 21
-38.251121429
 31
0.000000000
  0
ARC
  5
A53
330
A02
100
AcDbEntity
  8
Shape2DView
100
AcDbCircle
 10
-22.535466309
 20
-29.939691512
 30
0.000000000
 40
0.500000000
100
AcDbArc
 50
52.000000000
 51
142.000000000
  0
ARC
  5
A54
330
A02
100
AcDbEntity
  8
Shape2DView
100
AcDbCircle
 10
-12.291326512
 20
-37.943290691
 30
0.000000000
 40
0.500000000
100
AcDbArc
 50
-38.000000000
 51
52.000000000
  0
LINE
  5
A55
330
A02
100
AcDbEntity
  8
Shape2DView
100
AcDbLine
 10
-11.983495774
 20
-37.549285314
 30
0.000000000
 11
-22.227635571
 21
-29.545686135
 31
0.000000000
  0
LINE
  5
A56
330
A02
100
AcDbEntity
  8
Shape2DView
100
AcDbLine
 10
-51.348589038
 20
-33.893278414
 30
0.000000000
 11
-39.132584968
 21
-38.339540277
 31
0.000000000
  0
ARC
  5
A57
330
A02
100
AcDbEntity
  8
Shape2DView
100
AcDbCircle
 10
-51.177578967
 20
-33.423432103
 30
0.000000000
 40
0.500000000
100
AcDbArc
 50
160.000000000
 51
-110.000000000
  0
ARC
  5
A58
330
A02
100
AcDbEntity
  8
Shape2DView
100
AcDbCircle
 10
-38.961574897
 20
-37.869693967
 30
0.000000000
 40
0.500000000
100
AcDbArc
 50
-110.000000000
 51
-20.000000000
  0
LINE
  5
A59
330
A02
100
AcDbEntity
  8
Shape2DView
100
AcDbLine
 10
-47.201163414
 20
-21.036417962
 30
0.000000000
 11
-51.647425277
 21
-33.252422032
 31
0.000000000
  0
LINE
  5
A5A
330
A02
100
AcDbEntity
  8
Shape2DView
100
AcDbLine
 10
-38.491728586
 20
-38.040704038
 30
0.000000000
 11
-34.045466723
 21
-25.824699968
 31
0.000000000
  0
ARC
  5
A5B
330
A02
100
AcDbEntity
  8
Shape2DView
100
AcDbCircle
 10
-46.731317103
 20
-21.207428033
 30
0.000000000
 40
0.500000000
100
AcDbArc
 50
70.000000000
 51
160.000000000
  0
ARC
  5
A5C
330
A02
100
AcDbEntity
  8
Shape2DView
100
AcDbCircle
 10
-34.515313033
 20
-25.653689897
 30
0.000000000
 40
0.500000000
100
AcDbArc
 50
-20.000000000
 51
70.000000000
  0
LINE
  5
A5D
330
A02
100
AcDbEntity
  8
Shape2DView
100
AcDbLine
 10
-34.344302962
 20
-25.183843586
 30
0.000000000
 11
-46.560307032
 21
-20.737581723
 31
0.000000000
  0
CIRCLE
  5
A5E
330
A02
100
AcDbEntity
  8
Shape2DView
100
AcDbCircle
 10
-27.638132000
 20
-26.845731000
 30
0.000000000
 40
1.100000000
  0
CIRCLE
  5
A5F
330
A02
100
AcDbEntity
  8
Shape2DView
100
AcDbCircle
 10
-74.290196000
 20
-10.488561000
 30
0.000000000
 40
1.100000000
  0
CIRCLE
  5
A60
330
A02
100
AcDbEntity
  8
Shape2DView
100
AcDbCircle
 10
-55.290196000
 20
-15.251061000
 30
0.000000000
 40
2.500000000
  0
LINE
  5
A61
330
A02
100
AcDbEntity
  8
Shape2DView
100
AcDbLine
 10
-71.277696000
 20
-7.463561000
 30
0.000000000
 11
-71.277696000
 21
5.536439000
 31
0.000000000
  0
ARC
  5
A62
330
A02
100
AcDbEntity
  8
Shape2DView
100
AcDbCircle
 10
-70.777696000
 20
-7.463561000
 30
0.000000000
 40
0.500000000
100
AcDbArc
 50
180.000000000
 51
-90.000000000
  0
ARC
  5
A63
330
A02
100
AcDbEntity
  8
Shape2DView
100
AcDbCircle
 10
-70.777696000
 20
5.536439000
 30
0.000000000
 40
0.500000000
100
AcDbArc
 50
90.000000000
 51
180.000000000
  0
LINE
  5
A64
330
A02
100
AcDbEntity
  8
Shape2DView
100
AcDbLine
 10
-57.777696000
 20
-7.963561000
 30
0.000000000
 11
-70.777696000
 21
-7.963561000
 31
0.000000000
  0
LINE
  5
A65
330
A02
100
AcDbEntity
  8
Shape2DView
100
AcDbLine
 10
-70.777696000
 20
6.036439000
 30
0.000000000
 11
-57.777696000
 21
6.036439000
 31
0.000000000
  0
ARC
  5
A66
330
A02
100
AcDbEntity
  8
Shape2DView
100
AcDbCircle
 10
-57.777696000
 20
-7.463561000
 30
0.000000000
 40
0.500000000
100
AcDbArc
 50
-90.000000000
 51
0.000000000
  0
ARC
  5
A67
330
A02
100
AcDbEntity
  8
Shape2DView
100
AcDbCircle
 10
-57.777696000
 20
5.536439000
 30
0.000000000
 40
0.500000000
100
AcDbArc
 50
0.000000000
 51
90.000000000
  0
LINE
  5
A68
330
A02
100
AcDbEntity
  8
Shape2DView
100
AcDbLine
 10
-57.277696000
 20
5.536439000
 30
0.000000000
 11
-57.277696000
 21
-7.463561000
 31
0.000000000
  0
LINE
  5
A69
330
A02
100
AcDbEntity
  8
Shape2DView
100
AcDbLine
 10
-51.727696000
 20
1.273939000
 30
0.000000000
 11
-38.727696000
 21
1.273939000
 31
0.000000000
  0
ARC
  5
A6A
330
A02
100
AcDbEntity
  8
Shape2DView
100
AcDbCircle
 10
-51.727696000
 20
0.773939000
 30
0.000000000
 40
0.500000000
100
AcDbArc
 50
90.000000000
 51
180.000000000
  0
ARC
  5
A6B
330
A02
100
AcDbEntity
  8
Shape2DView
100
AcDbCircle
 10
-38.727696000
 20
0.773939000
 30
0.000000000
 40
0.500000000
100
AcDbArc
 50
0.000000000
 51
90.000000000
  0
LINE
  5
A6C
330
A02
100
AcDbEntity
  8
Shape2DView
100
AcDbLine
 10
-52.227696000
 20
-12.226061000
 30
0.000000000
 11
-52.227696000
 21
0.773939000
 31
0.000000000
  0
LINE
  5
A6D
330
A02
100
AcDbEntity
  8
Shape2DView
100
AcDbLine
 10
-38.227696000
 20
0.773939000
 30
0.000000000
 11
-38.227696000
 21
-12.226061000
 31
0.000000000
  0
ARC
  5
A6E
330
A02
100
AcDbEntity
  8
Shape2DView
100
AcDbCircle
 10
-51.727696000
 20
-12.226061000
 30
0.000000000
 40
0.500000000
100
AcDbArc
 50
180.000000000
 51
-90.000000000
  0
ARC
  5
A6F
330
A02
100
AcDbEntity
  8
Shape2DView
100
AcDbCircle
 10
-38.727696000
 20
-12.226061000
 30
0.000000000
 40
0.500000000
100
AcDbArc
 50
-90.000000000
 51
0.000000000
  0
LINE
  5
A70
330
A02
100
AcDbEntity
  8
Shape2DView
100
AcDbLine
 10
-38.727696000
 20
-12.726061000
 30
0.000000000
 11
-51.727696000
 21
-12.726061000
 31
0.000000000
  0
CIRCLE
  5
A71
330
A02
100
AcDbEntity
  8
Shape2DView
100
AcDbCircle
 10
-130.952696000
 20
3.798939000
 30
0.000000000
 40
2.500000000
  0
LINE
  5
A72
330
A02
100
AcDbEntity
  8
Shape2DView
100
AcDbLine
 10
-147.477696000
 20
6.823939000
 30
0.000000000
 11
-147.477696000
 21
19.823939000
 31
0.000000000
  0
ARC
  5
A73
330
A02
100
AcDbEntity
  8
Shape2DView
100
AcDbCircle
 10
-146.977696000
 20
6.823939000
 30
0.000000000
 40
0.500000000
100
AcDbArc
 50
180.000000000
 51
-90.000000000
  0
ARC
  5
A74
330
A02
100
AcDbEntity
  8
Shape2DView
100
AcDbCircle
 10
-146.977696000
 20
19.823939000
 30
0.000000000
 40
0.500000000
100
AcDbArc
 50
90.000000000
 51
180.000000000
  0
LINE
  5
A75
330
A02
100
AcDbEntity
  8
Shape2DView
100
AcDbLine
 10
-133.977696000
 20
6.323939000
 30
0.000000000
 11
-146.977696000
 21
6.323939000
 31
0.000000000
  0
LINE
  5
A76
330
A02
100
AcDbEntity
  8
Shape2DView
100
AcDbLine
 10
-146.977696000
 20
20.323939000
 30
0.000000000
 11
-133.977696000
 21
20.323939000
 31
0.000000000
  0
ARC
  5
A77
330
A02
100
AcDbEntity
  8
Shape2DView
100
AcDbCircle
 10
-133.977696000
 20
6.823939000
 30
0.000000000
 40
0.500000000
100
AcDbArc
 50
-90.000000000
 51
0.000000000
  0
ARC
  5
A78
330
A02
100
AcDbEntity
  8
Shape2DView
100
AcDbCircle
 10
-133.977696000
 20
19.823939000
 30
0.000000000
 40
0.500000000
100
AcDbArc
 50
0.000000000
 51
90.000000000
  0
LINE
  5
A79
330
A02
100
AcDbEntity
  8
Shape2DView
100
AcDbLine
 10
-133.477696000
 20
19.823939000
 30
0.000000000
 11
-133.477696000
 21
6.823939000
 31
0.000000000
  0
LINE
  5
A7A
330
A02
100
AcDbEntity
  8
Shape2DView
100
AcDbLine
 10
-128.427696000
 20
6.823939000
 30
0.000000000
 11
-128.427696000
 21
19.823939000
 31
0.000000000
  0
ARC
  5
A7B
330
A02
100
AcDbEntity
  8
Shape2DView
100
AcDbCircle
 10
-127.927696000
 20
6.823939000
 30
0.000000000
 40
0.500000000
100
AcDbArc
 50
180.000000000
 51
-90.000000000
  0
ARC
  5
A7C
330
A02
100
AcDbEntity
  8
Shape2DView
100
AcDbCircle
 10
-127.927696000
 20
19.823939000
 30
0.000000000
 40
0.500000000
100
AcDbArc
 50
90.000000000
 51
180.000000000
  0
LINE
  5
A7D
330
A02
100
AcDbEntity
  8
Shape2DView
100
AcDbLine
 10
-114.927696000
 20
6.323939000
 30
0.000000000
 11
-127.927696000
 21
6.323939000
 31
0.000000000
  0
LINE
  5
A7E
330
A02
100
AcDbEntity
  8
Shape2DView
100
AcDbLine
 10
-127.927696000
 20
20.323939000
 30
0.000000000
 11
-114.927696000
 21
20.323939000
 31
0.000000000
  0
ARC
  5
A7F
330
A02
100
AcDbEntity
  8
Shape2DView
100
AcDbCircle
 10
-114.927696000
 20
6.823939000
 30
0.000000000
 40
0.500000000
100
AcDbArc
 50
-90.000000000
 51
0.000000000
  0
ARC
  5
A80
330
A02
100
AcDbEntity
  8
Shape2DView
100
AcDbCircle
 10
-114.927696000
 20
19.823939000
 30
0.000000000
 40
0.500000000
100
AcDbArc
 50
0.000000000
 51
90.000000000
  0
LINE
  5
A81
330
A02
100
AcDbEntity
  8
Shape2DView
100
AcDbLine
 10
-114.427696000
 20
19.823939000
 30
0.000000000
 11
-114.427696000
 21
6.823939000
 31
0.000000000
  0
CIRCLE
  5
A82
330
A02
100
AcDbEntity
  8
Shape2DView
100
AcDbCircle
 10
-130.952696000
 20
22.848939000
 30
0.000000000
 40
2.500000000
  0
CIRCLE
  5
A83
330
A02
100
AcDbEntity
  8
Shape2DView
100
AcDbCircle
 10
-112.390196000
 20
3.798939000
 30
0.000000000
 40
1.100000000
  0
LINE
  5
A84
330
A02
100
AcDbEntity
  8
Shape2DView
100
AcDbLine
 10
-90.327696000
 20
2.061439000
 30
0.000000000
 11
-90.327696000
 21
15.061439000
 31
0.000000000
  0
ARC
  5
A85
330
A02
100
AcDbEntity
  8
Shape2DView
100
AcDbCircle
 10
-89.827696000
 20
2.061439000
 30
0.000000000
 40
0.500000000
100
AcDbArc
 50
180.000000000
 51
-90.000000000
  0
ARC
  5
A86
330
A02
100
AcDbEntity
  8
Shape2DView
100
AcDbCircle
 10
-89.827696000
 20
15.061439000
 30
0.000000000
 40
0.500000000
100
AcDbArc
 50
90.000000000
 51
180.000000000
  0
LINE
  5
A87
330
A02
100
AcDbEntity
  8
Shape2DView
100
AcDbLine
 10
-76.827696000
 20
1.561439000
 30
0.000000000
 11
-89.827696000
 21
1.561439000
 31
0.000000000
  0
LINE
  5
A88
330
A02
100
AcDbEntity
  8
Shape2DView
100
AcDbLine
 10
-89.827696000
 20
15.561439000
 30
0.000000000
 11
-76.827696000
 21
15.561439000
 31
0.000000000
  0
ARC
  5
A89
330
A02
100
AcDbEntity
  8
Shape2DView
100
AcDbCircle
 10
-76.827696000
 20
2.061439000
 30
0.000000000
 40
0.500000000
100
AcDbArc
 50
-90.000000000
 51
0.000000000
  0
ARC
  5
A8A
330
A02
100
AcDbEntity
  8
Shape2DView
100
AcDbCircle
 10
-76.827696000
 20
15.061439000
 30
0.000000000
 40
0.500000000
100
AcDbArc
 50
0.000000000
 51
90.000000000
  0
LINE
  5
A8B
330
A02
100
AcDbEntity
  8
Shape2DView
100
AcDbLine
 10
-76.327696000
 20
15.061439000
 30
0.000000000
 11
-76.327696000
 21
2.061439000
 31
0.000000000
  0
LINE
  5
A8C
330
A02
100
AcDbEntity
  8
Shape2DView
100
AcDbLine
 10
-109.377696000
 20
11.586439000
 30
0.000000000
 11
-109.377696000
 21
24.586439000
 31
0.000000000
  0
ARC
  5
A8D
330
A02
100
AcDbEntity
  8
Shape2DView
100
AcDbCircle
 10
-108.877696000
 20
11.586439000
 30
0.000000000
 40
0.500000000
100
AcDbArc
 50
180.000000000
 51
-90.000000000
  0
ARC
  5
A8E
330
A02
100
AcDbEntity
  8
Shape2DView
100
AcDbCircle
 10
-108.877696000
 20
24.586439000
 30
0.000000000
 40
0.500000000
100
AcDbArc
 50
90.000000000
 51
180.000000000
  0
LINE
  5
A8F
330
A02
100
AcDbEntity
  8
Shape2DView
100
AcDbLine
 10
-95.877696000
 20
11.086439000
 30
0.000000000
 11
-108.877696000
 21
11.086439000
 31
0.000000000
  0
LINE
  5
A90
330
A02
100
AcDbEntity
  8
Shape2DView
100
AcDbLine
 10
-108.877696000
 20
25.086439000
 30
0.000000000
 11
-95.877696000
 21
25.086439000
 31
0.000000000
  0
ARC
  5
A91
330
A02
100
AcDbEntity
  8
Shape2DView
100
AcDbCircle
 10
-95.877696000
 20
11.586439000
 30
0.000000000
 40
0.500000000
100
AcDbArc
 50
-90.000000000
 51
0.000000000
  0
ARC
  5
A92
330
A02
100
AcDbEntity
  8
Shape2DView
100
AcDbCircle
 10
-95.877696000
 20
24.586439000
 30
0.000000000
 40
0.500000000
100
AcDbArc
 50
0.000000000
 51
90.000000000
  0
LINE
  5
A93
330
A02
100
AcDbEntity
  8
Shape2DView
100
AcDbLine
 10
-95.377696000
 20
24.586439000
 30
0.000000000
 11
-95.377696000
 21
11.586439000
 31
0.000000000
  0
CIRCLE
  5
A94
330
A02
100
AcDbEntity
  8
Shape2DView
100
AcDbCircle
 10
-111.390196000
 20
27.611439000
 30
0.000000000
 40
1.100000000
  0
LINE
  5
A95
330
A02
100
AcDbEntity
  8
Shape2DView
100
AcDbLine
 10
-90.327696000
 20
21.111439000
 30
0.000000000
 11
-90.327696000
 21
34.111439000
 31
0.000000000
  0
ARC
  5
A96
330
A02
100
AcDbEntity
  8
Shape2DView
100
AcDbCircle
 10
-89.827696000
 20
21.111439000
 30
0.000000000
 40
0.500000000
100
AcDbArc
 50
180.000000000
 51
-90.000000000
  0
ARC
  5
A97
330
A02
100
AcDbEntity
  8
Shape2DView
100
AcDbCircle
 10
-89.827696000
 20
34.111439000
 30
0.000000000
 40
0.500000000
100
AcDbArc
 50
90.000000000
 51
180.000000000
  0
LINE
  5
A98
330
A02
100
AcDbEntity
  8
Shape2DView
100
AcDbLine
 10
-76.827696000
 20
20.611439000
 30
0.000000000
 11
-89.827696000
 21
20.611439000
 31
0.000000000
  0
LINE
  5
A99
330
A02
100
AcDbEntity
  8
Shape2DView
100
AcDbLine
 10
-89.827696000
 20
34.611439000
 30
0.000000000
 11
-76.827696000
 21
34.611439000
 31
0.000000000
  0
ARC
  5
A9A
330
A02
100
AcDbEntity
  8
Shape2DView
100
AcDbCircle
 10
-76.827696000
 20
21.111439000
 30
0.000000000
 40
0.500000000
100
AcDbArc
 50
-90.000000000
 51
0.000000000
  0
ARC
  5
A9B
330
A02
100
AcDbEntity
  8
Shape2DView
100
AcDbCircle
 10
-76.827696000
 20
34.111439000
 30
0.000000000
 40
0.500000000
100
AcDbArc
 50
0.000000000
 51
90.000000000
  0
LINE
  5
A9C
330
A02
100
AcDbEntity
  8
Shape2DView
100
AcDbLine
 10
-76.327696000
 20
34.111439000
 30
0.000000000
 11
-76.327696000
 21
21.111439000
 31
0.000000000
  0
LINE
  5
A9D
330
A02
100
AcDbEntity
  8
Shape2DView
100
AcDbLine
 10
-147.477696000
 20
25.873939000
 30
0.000000000
 11
-147.477696000
 21
38.873939000
 31
0.000000000
  0
ARC
  5
A9E
330
A02
100
AcDbEntity
  8
Shape2DView
100
AcDbCircle
 10
-146.977696000
 20
25.873939000
 30
0.000000000
 40
0.500000000
100
AcDbArc
 50
180.000000000
 51
-90.000000000
  0
ARC
  5
A9F
330
A02
100
AcDbEntity
  8
Shape2DView
100
AcDbCircle
 10
-146.977696000
 20
38.873939000
 30
0.000000000
 40
0.500000000
100
AcDbArc
 50
90.000000000
 51
180.000000000
  0
LINE
  5
AA0
330
A02
100
AcDbEntity
  8
Shape2DView
100
AcDbLine
 10
-133.977696000
 20
25.373939000
 30
0.000000000
 11
-146.977696000
 21
25.373939000
 31
0.000000000
  0
LINE
  5
AA1
330
A02
100
AcDbEntity
  8
Shape2DView
100
AcDbLine
 10
-146.977696000
 20
39.373939000
 30
0.000000000
 11
-133.977696000
 21
39.373939000
 31
0.000000000
  0
ARC
  5
AA2
330
A02
100
AcDbEntity
  8
Shape2DView
100
AcDbCircle
 10
-133.977696000
 20
25.873939000
 30
0.000000000
 40
0.500000000
100
AcDbArc
 50
-90.000000000
 51
0.000000000
  0
ARC
  5
AA3
330
A02
100
AcDbEntity
  8
Shape2DView
100
AcDbCircle
 10
-133.977696000
 20
38.873939000
 30
0.000000000
 40
0.500000000
100
AcDbArc
 50
0.000000000
 51
90.000000000
  0
LINE
  5
AA4
330
A02
100
AcDbEntity
  8
Shape2DView
100
AcDbLine
 10
-133.477696000
 20
38.873939000
 30
0.000000000
 11
-133.477696000
 21
25.873939000
 31
0.000000000
  0
LINE
  5
AA5
330
A02
100
AcDbEntity
  8
Shape2DView
100
AcDbLine
 10
-128.427696000
 20
25.873939000
 30
0.000000000
 11
-128.427696000
 21
38.873939000
 31
0.000000000
  0
ARC
  5
AA6
330
A02
100
AcDbEntity
  8
Shape2DView
100
AcDbCircle
 10
-127.927696000
 20
25.873939000
 30
0.000000000
 40
0.500000000
100
AcDbArc
 50
180.000000000
 51
-90.000000000
  0
ARC
  5
AA7
330
A02
100
AcDbEntity
  8
Shape2DView
100
AcDbCircle
 10
-127.927696000
 20
38.873939000
 30
0.000000000
 40
0.500000000
100
AcDbArc
 50
90.000000000
 51
180.000000000
  0
LINE
  5
AA8
330
A02
100
AcDbEntity
  8
Shape2DView
100
AcDbLine
 10
-114.927696000
 20
25.373939000
 30
0.000000000
 11
-127.927696000
 21
25.373939000
 31
0.000000000
  0
LINE
  5
AA9
330
A02
100
AcDbEntity
  8
Shape2DView
100
AcDbLine
 10
-127.927696000
 20
39.373939000
 30
0.000000000
 11
-114.927696000
 21
39.373939000
 31
0.000000000
  0
ARC
  5
AAA
330
A02
100
AcDbEntity
  8
Shape2DView
100
AcDbCircle
 10
-114.927696000
 20
25.873939000
 30
0.000000000
 40
0.500000000
100
AcDbArc
 50
-90.000000000
 51
0.000000000
  0
ARC
  5
AAB
330
A02
100
AcDbEntity
  8
Shape2DView
100
AcDbCircle
 10
-114.927696000
 20
38.873939000
 30
0.000000000
 40
0.500000000
100
AcDbArc
 50
0.000000000
 51
90.000000000
  0
LINE
  5
AAC
330
A02
100
AcDbEntity
  8
Shape2DView
100
AcDbLine
 10
-114.427696000
 20
38.873939000
 30
0.000000000
 11
-114.427696000
 21
25.873939000
 31
0.000000000
  0
LINE
  5
AAD
330
A02
100
AcDbEntity
  8
Shape2DView
100
AcDbLine
 10
-109.377696000
 20
30.636439000
 30
0.000000000
 11
-109.377696000
 21
43.636439000
 31
0.000000000
  0
ARC
  5
AAE
330
A02
100
AcDbEntity
  8
Shape2DView
100
AcDbCircle
 10
-108.877696000
 20
30.636439000
 30
0.000000000
 40
0.500000000
100
AcDbArc
 50
180.000000000
 51
-90.000000000
  0
ARC
  5
AAF
330
A02
100
AcDbEntity
  8
Shape2DView
100
AcDbCircle
 10
-108.877696000
 20
43.636439000
 30
0.000000000
 40
0.500000000
100
AcDbArc
 50
90.000000000
 51
180.000000000
  0
LINE
  5
AB0
330
A02
100
AcDbEntity
  8
Shape2DView
100
AcDbLine
 10
-95.877696000
 20
30.136439000
 30
0.000000000
 11
-108.877696000
 21
30.136439000
 31
0.000000000
  0
LINE
  5
AB1
330
A02
100
AcDbEntity
  8
Shape2DView
100
AcDbLine
 10
-108.877696000
 20
44.136439000
 30
0.000000000
 11
-95.877696000
 21
44.136439000
 31
0.000000000
  0
ARC
  5
AB2
330
A02
100
AcDbEntity
  8
Shape2DView
100
AcDbCircle
 10
-95.877696000
 20
30.636439000
 30
0.000000000
 40
0.500000000
100
AcDbArc
 50
-90.000000000
 51
0.000000000
  0
ARC
  5
AB3
330
A02
100
AcDbEntity
  8
Shape2DView
100
AcDbCircle
 10
-95.877696000
 20
43.636439000
 30
0.000000000
 40
0.500000000
100
AcDbArc
 50
0.000000000
 51
90.000000000
  0
LINE
  5
AB4
330
A02
100
AcDbEntity
  8
Shape2DView
100
AcDbLine
 10
-95.377696000
 20
43.636439000
 30
0.000000000
 11
-95.377696000
 21
30.636439000
 31
0.000000000
  0
LINE
  5
AB5
330
A02
100
AcDbEntity
  8
Shape2DView
100
AcDbLine
 10
-90.327696000
 20
40.161439000
 30
0.000000000
 11
-90.327696000
 21
53.161439000
 31
0.000000000
  0
ARC
  5
AB6
330
A02
100
AcDbEntity
  8
Shape2DView
100
AcDbCircle
 10
-89.827696000
 20
40.161439000
 30
0.000000000
 40
0.500000000
100
AcDbArc
 50
180.000000000
 51
-90.000000000
  0
ARC
  5
AB7
330
A02
100
AcDbEntity
  8
Shape2DView
100
AcDbCircle
 10
-89.827696000
 20
53.161439000
 30
0.000000000
 40
0.500000000
100
AcDbArc
 50
90.000000000
 51
180.000000000
  0
LINE
  5
AB8
330
A02
100
AcDbEntity
  8
Shape2DView
100
AcDbLine
 10
-76.827696000
 20
39.661439000
 30
0.000000000
 11
-89.827696000
 21
39.661439000
 31
0.000000000
  0
LINE
  5
AB9
330
A02
100
AcDbEntity
  8
Shape2DView
100
AcDbLine
 10
-89.827696000
 20
53.661439000
 30
0.000000000
 11
-76.827696000
 21
53.661439000
 31
0.000000000
  0
ARC
  5
ABA
330
A02
100
AcDbEntity
  8
Shape2DView
100
AcDbCircle
 10
-76.827696000
 20
40.161439000
 30
0.000000000
 40
0.500000000
100
AcDbArc
 50
-90.000000000
 51
0.000000000
  0
ARC
  5
ABB
330
A02
100
AcDbEntity
  8
Shape2DView
100
AcDbCircle
 10
-76.827696000
 20
53.161439000
 30
0.000000000
 40
0.500000000
100
AcDbArc
 50
0.000000000
 51
90.000000000
  0
LINE
  5
ABC
330
A02
100
AcDbEntity
  8
Shape2DView
100
AcDbLine
 10
-76.327696000
 20
53.161439000
 30
0.000000000
 11
-76.327696000
 21
40.161439000
 31
0.000000000
  0
CIRCLE
  5
ABD
330
A02
100
AcDbEntity
  8
Shape2DView
100
AcDbCircle
 10
-55.290196000
 20
8.561439000
 30
0.000000000
 40
1.100000000
  0
LINE
  5
ABE
330
A02
100
AcDbEntity
  8
Shape2DView
100
AcDbLine
 10
-71.277696000
 20
11.586439000
 30
0.000000000
 11
-71.277696000
 21
24.586439000
 31
0.000000000
  0
ARC
  5
ABF
330
A02
100
AcDbEntity
  8
Shape2DView
100
AcDbCircle
 10
-70.777696000
 20
11.586439000
 30
0.000000000
 40
0.500000000
100
AcDbArc
 50
180.000000000
 51
-90.000000000
  0
ARC
  5
AC0
330
A02
100
AcDbEntity
  8
Shape2DView
100
AcDbCircle
 10
-70.777696000
 20
24.586439000
 30
0.000000000
 40
0.500000000
100
AcDbArc
 50
90.000000000
 51
180.000000000
  0
LINE
  5
AC1
330
A02
100
AcDbEntity
  8
Shape2DView
100
AcDbLine
 10
-57.777696000
 20
11.086439000
 30
0.000000000
 11
-70.777696000
 21
11.086439000
 31
0.000000000
  0
LINE
  5
AC2
330
A02
100
AcDbEntity
  8
Shape2DView
100
AcDbLine
 10
-70.777696000
 20
25.086439000
 30
0.000000000
 11
-57.777696000
 21
25.086439000
 31
0.000000000
  0
ARC
  5
AC3
330
A02
100
AcDbEntity
  8
Shape2DView
100
AcDbCircle
 10
-57.777696000
 20
11.586439000
 30
0.000000000
 40
0.500000000
100
AcDbArc
 50
-90.000000000
 51
0.000000000
  0
ARC
  5
AC4
330
A02
100
AcDbEntity
  8
Shape2DView
100
AcDbCircle
 10
-57.777696000
 20
24.586439000
 30
0.000000000
 40
0.500000000
100
AcDbArc
 50
0.000000000
 51
90.000000000
  0
LINE
  5
AC5
330
A02
100
AcDbEntity
  8
Shape2DView
100
AcDbLine
 10
-57.277696000
 20
24.586439000
 30
0.000000000
 11
-57.277696000
 21
11.586439000
 31
0.000000000
  0
CIRCLE
  5
AC6
330
A02
100
AcDbEntity
  8
Shape2DView
100
AcDbCircle
 10
-55.040196000
 20
27.611439000
 30
0.000000000
 40
2.500000000
  0
LINE
  5
AC7
330
A02
100
AcDbEntity
  8
Shape2DView
100
AcDbLine
 10
-52.227696000
 20
6.823939000
 30
0.000000000
 11
-52.227696000
 21
19.823939000
 31
0.000000000
  0
ARC
  5
AC8
330
A02
100
AcDbEntity
  8
Shape2DView
100
AcDbCircle
 10
-51.727696000
 20
6.823939000
 30
0.000000000
 40
0.500000000
100
AcDbArc
 50
180.000000000
 51
-90.000000000
  0
ARC
  5
AC9
330
A02
100
AcDbEntity
  8
Shape2DView
100
AcDbCircle
 10
-51.727696000
 20
19.823939000
 30
0.000000000
 40
0.500000000
100
AcDbArc
 50
90.000000000
 51
180.000000000
  0
LINE
  5
ACA
330
A02
100
AcDbEntity
  8
Shape2DView
100
AcDbLine
 10
-38.727696000
 20
6.323939000
 30
0.000000000
 11
-51.727696000
 21
6.323939000
 31
0.000000000
  0
LINE
  5
ACB
330
A02
100
AcDbEntity
  8
Shape2DView
100
AcDbLine
 10
-51.727696000
 20
20.323939000
 30
0.000000000
 11
-38.727696000
 21
20.323939000
 31
0.000000000
  0
ARC
  5
ACC
330
A02
100
AcDbEntity
  8
Shape2DView
100
AcDbCircle
 10
-38.727696000
 20
6.823939000
 30
0.000000000
 40
0.500000000
100
AcDbArc
 50
-90.000000000
 51
0.000000000
  0
ARC
  5
ACD
330
A02
100
AcDbEntity
  8
Shape2DView
100
AcDbCircle
 10
-38.727696000
 20
19.823939000
 30
0.000000000
 40
0.500000000
100
AcDbArc
 50
0.000000000
 51
90.000000000
  0
LINE
  5
ACE
330
A02
100
AcDbEntity
  8
Shape2DView
100
AcDbLine
 10
-38.227696000
 20
19.823939000
 30
0.000000000
 11
-38.227696000
 21
6.823939000
 31
0.000000000
  0
CIRCLE
  5
ACF
330
A02
100
AcDbEntity
  8
Shape2DView
100
AcDbCircle
 10
-74.290196000
 20
37.136439000
 30
0.000000000
 40
1.100000000
  0
LINE
  5
AD0
330
A02
100
AcDbEntity
  8
Shape2DView
100
AcDbLine
 10
-71.277696000
 20
30.636439000
 30
0.000000000
 11
-71.277696000
 21
43.636439000
 31
0.000000000
  0
ARC
  5
AD1
330
A02
100
AcDbEntity
  8
Shape2DView
100
AcDbCircle
 10
-70.777696000
 20
30.636439000
 30
0.000000000
 40
0.500000000
100
AcDbArc
 50
180.000000000
 51
-90.000000000
  0
ARC
  5
AD2
330
A02
100
AcDbEntity
  8
Shape2DView
100
AcDbCircle
 10
-70.777696000
 20
43.636439000
 30
0.000000000
 40
0.500000000
100
AcDbArc
 50
90.000000000
 51
180.000000000
  0
LINE
  5
AD3
330
A02
100
AcDbEntity
  8
Shape2DView
100
AcDbLine
 10
-57.777696000
 20
30.136439000
 30
0.000000000
 11
-70.777696000
 21
30.136439000
 31
0.000000000
  0
LINE
  5
AD4
330
A02
100
AcDbEntity
  8
Shape2DView
100
AcDbLine
 10
-70.777696000
 20
44.136439000
 30
0.000000000
 11
-57.777696000
 21
44.136439000
 31
0.000000000
  0
ARC
  5
AD5
330
A02
100
AcDbEntity
  8
Shape2DView
100
AcDbCircle
 10
-57.777696000
 20
30.636439000
 30
0.000000000
 40
0.500000000
100
AcDbArc
 50
-90.000000000
 51
0.000000000
  0
ARC
  5
AD6
330
A02
100
AcDbEntity
  8
Shape2DView
100
AcDbCircle
 10
-57.777696000
 20
43.636439000
 30
0.000000000
 40
0.500000000
100
AcDbArc
 50
0.000000000
 51
90.000000000
  0
LINE
  5
AD7
330
A02
100
AcDbEntity
  8
Shape2DView
100
AcDbLine
 10
-57.277696000
 20
43.636439000
 30
0.000000000
 11
-57.277696000
 21
30.636439000
 31
0.000000000
  0
LINE
  5
AD8
330
A02
100
AcDbEntity
  8
Shape2DView
100
AcDbLine
 10
-52.227696000
 20
25.873939000
 30
0.000000000
 11
-52.227696000
 21
38.873939000
 31
0.000000000
  0
ARC
  5
AD9
330
A02
100
AcDbEntity
  8
Shape2DView
100
AcDbCircle
 10
-51.727696000
 20
25.873939000
 30
0.000000000
 40
0.500000000
100
AcDbArc
 50
180.000000000
 51
-90.000000000
  0
ARC
  5
ADA
330
A02
100
AcDbEntity
  8
Shape2DView
100
AcDbCircle
 10
-51.727696000
 20
38.873939000
 30
0.000000000
 40
0.500000000
100
AcDbArc
 50
90.000000000
 51
180.000000000
  0
LINE
  5
ADB
330
A02
100
AcDbEntity
  8
Shape2DView
100
AcDbLine
 10
-38.727696000
 20
25.373939000
 30
0.000000000
 11
-51.727696000
 21
25.373939000
 31
0.000000000
  0
LINE
  5
ADC
330
A02
100
AcDbEntity
  8
Shape2DView
100
AcDbLine
 10
-51.727696000
 20
39.373939000
 30
0.000000000
 11
-38.727696000
 21
39.373939000
 31
0.000000000
  0
ARC
  5
ADD
330
A02
100
AcDbEntity
  8
Shape2DView
100
AcDbCircle
 10
-38.727696000
 20
25.873939000
 30
0.000000000
 40
0.500000000
100
AcDbArc
 50
-90.000000000
 51
0.000000000
  0
ARC
  5
ADE
330
A02
100
AcDbEntity
  8
Shape2DView
100
AcDbCircle
 10
-38.727696000
 20
38.873939000
 30
0.000000000
 40
0.500000000
100
AcDbArc
 50
0.000000000
 51
90.000000000
  0
LINE
  5
ADF
330
A02
100
AcDbEntity
  8
Shape2DView
100
AcDbLine
 10
-38.227696000
 20
38.873939000
 30
0.000000000
 11
-38.227696000
 21
25.873939000
 31
0.000000000
  0
ENDSEC
  0
SECTION
  2
OBJECTS
  0
DICTIONARY
  5
F000
330
0
100
AcDbDictionary
  3
ACAD_GROUP
350
F001
  0
DICTIONARY
  5
F001
330
F000
100
AcDbDictionary
  0
ENDSEC
  0
EOF